<mxfile host="app.diagrams.net" modified="2024-05-07T06:41:37.102Z" agent="Mozilla/5.0 (Windows NT 10.0; Win64; x64) AppleWebKit/537.36 (KHTML, like Gecko) Chrome/124.0.0.0 Safari/537.36" etag="TdjAJ0rrFCqPKba3jslA" version="24.2.5" type="device">
  <diagram name="Page-1" id="PPj7PlnjSNOK1vfJ_sGL">
    <mxGraphModel dx="1764" dy="991" grid="1" gridSize="10" guides="1" tooltips="1" connect="1" arrows="1" fold="1" page="1" pageScale="1" pageWidth="850" pageHeight="1100" math="0" shadow="0">
      <root>
        <mxCell id="0" />
        <mxCell id="1" parent="0" />
        <mxCell id="IoweaXRMdIXxW78kK1h9-36" value="" style="rounded=0;whiteSpace=wrap;html=1;dashed=1;fillColor=none;" vertex="1" parent="1">
          <mxGeometry x="550" y="40" width="530" height="520" as="geometry" />
        </mxCell>
        <mxCell id="IoweaXRMdIXxW78kK1h9-19" value="&lt;font style=&quot;font-size: 20px;&quot;&gt;User&lt;/font&gt;" style="shape=umlActor;verticalLabelPosition=bottom;verticalAlign=top;html=1;outlineConnect=0;" vertex="1" parent="1">
          <mxGeometry x="160" y="270" width="60" height="120" as="geometry" />
        </mxCell>
        <mxCell id="IoweaXRMdIXxW78kK1h9-25" value="" style="rounded=0;whiteSpace=wrap;html=1;dashed=1;fillColor=none;" vertex="1" parent="1">
          <mxGeometry x="320" y="40" width="230" height="520" as="geometry" />
        </mxCell>
        <mxCell id="IoweaXRMdIXxW78kK1h9-28" value="&lt;font style=&quot;font-size: 22px;&quot;&gt;&lt;b&gt;Front end&lt;/b&gt;&lt;/font&gt;" style="text;html=1;align=center;verticalAlign=middle;whiteSpace=wrap;rounded=0;dashed=1;" vertex="1" parent="1">
          <mxGeometry x="320" y="40" width="240" height="70" as="geometry" />
        </mxCell>
        <mxCell id="IoweaXRMdIXxW78kK1h9-27" value="" style="endArrow=none;dashed=1;html=1;rounded=0;exitX=0;exitY=0.25;exitDx=0;exitDy=0;entryX=0;entryY=1;entryDx=0;entryDy=0;" edge="1" parent="1" target="IoweaXRMdIXxW78kK1h9-39">
          <mxGeometry width="50" height="50" relative="1" as="geometry">
            <mxPoint x="320" y="110" as="sourcePoint" />
            <mxPoint x="1311.38" y="113.31999999999994" as="targetPoint" />
          </mxGeometry>
        </mxCell>
        <mxCell id="IoweaXRMdIXxW78kK1h9-31" value="" style="rounded=0;whiteSpace=wrap;html=1;" vertex="1" parent="1">
          <mxGeometry x="380" y="130" width="130" height="380" as="geometry" />
        </mxCell>
        <mxCell id="IoweaXRMdIXxW78kK1h9-39" value="&lt;font style=&quot;font-size: 22px;&quot;&gt;&lt;b&gt;Back end&lt;/b&gt;&lt;/font&gt;" style="text;html=1;align=center;verticalAlign=middle;whiteSpace=wrap;rounded=0;dashed=1;" vertex="1" parent="1">
          <mxGeometry x="550" y="40" width="530" height="70" as="geometry" />
        </mxCell>
        <mxCell id="IoweaXRMdIXxW78kK1h9-29" value="&lt;font style=&quot;font-size: 24px;&quot;&gt;UI&lt;/font&gt;" style="rounded=0;whiteSpace=wrap;html=1;" vertex="1" parent="1">
          <mxGeometry x="360" y="150" width="130" height="380" as="geometry" />
        </mxCell>
        <mxCell id="IoweaXRMdIXxW78kK1h9-33" value="" style="shape=flexArrow;endArrow=classic;html=1;rounded=0;entryX=0;entryY=0.5;entryDx=0;entryDy=0;" edge="1" parent="1" source="IoweaXRMdIXxW78kK1h9-19">
          <mxGeometry width="50" height="50" relative="1" as="geometry">
            <mxPoint x="590" y="310" as="sourcePoint" />
            <mxPoint x="360" y="330" as="targetPoint" />
          </mxGeometry>
        </mxCell>
        <mxCell id="IoweaXRMdIXxW78kK1h9-40" value="&lt;font style=&quot;font-size: 20px;&quot;&gt;IP Scanner&lt;/font&gt;" style="rounded=1;whiteSpace=wrap;html=1;" vertex="1" parent="1">
          <mxGeometry x="600" y="140" width="430" height="60" as="geometry" />
        </mxCell>
        <mxCell id="IoweaXRMdIXxW78kK1h9-41" value="&lt;font style=&quot;font-size: 20px;&quot;&gt;Port Scanner&lt;/font&gt;" style="rounded=1;whiteSpace=wrap;html=1;" vertex="1" parent="1">
          <mxGeometry x="600" y="220" width="430" height="60" as="geometry" />
        </mxCell>
        <mxCell id="IoweaXRMdIXxW78kK1h9-42" value="&lt;font style=&quot;font-size: 20px;&quot;&gt;Penetration Tester&lt;/font&gt;" style="rounded=1;whiteSpace=wrap;html=1;" vertex="1" parent="1">
          <mxGeometry x="600" y="300" width="430" height="60" as="geometry" />
        </mxCell>
        <mxCell id="IoweaXRMdIXxW78kK1h9-43" value="&lt;font style=&quot;font-size: 20px;&quot;&gt;Topological Displayer&lt;/font&gt;" style="rounded=1;whiteSpace=wrap;html=1;" vertex="1" parent="1">
          <mxGeometry x="600" y="380" width="430" height="60" as="geometry" />
        </mxCell>
        <mxCell id="IoweaXRMdIXxW78kK1h9-44" value="&lt;font style=&quot;font-size: 20px;&quot;&gt;Vulnerability Scanner&lt;/font&gt;" style="rounded=1;whiteSpace=wrap;html=1;" vertex="1" parent="1">
          <mxGeometry x="600" y="460" width="430" height="60" as="geometry" />
        </mxCell>
        <mxCell id="IoweaXRMdIXxW78kK1h9-51" value="" style="shape=flexArrow;endArrow=classic;html=1;rounded=0;" edge="1" parent="1">
          <mxGeometry width="50" height="50" relative="1" as="geometry">
            <mxPoint x="510" y="329.58" as="sourcePoint" />
            <mxPoint x="600" y="329.58" as="targetPoint" />
          </mxGeometry>
        </mxCell>
        <mxCell id="IoweaXRMdIXxW78kK1h9-53" value="" style="shape=flexArrow;endArrow=classic;html=1;rounded=0;" edge="1" parent="1">
          <mxGeometry width="50" height="50" relative="1" as="geometry">
            <mxPoint x="1030" y="329" as="sourcePoint" />
            <mxPoint x="1120" y="329" as="targetPoint" />
          </mxGeometry>
        </mxCell>
        <mxCell id="IoweaXRMdIXxW78kK1h9-87" value="" style="rounded=1;whiteSpace=wrap;html=1;fillColor=none;" vertex="1" parent="1">
          <mxGeometry x="1120" y="160" width="250" height="340" as="geometry" />
        </mxCell>
        <mxCell id="IoweaXRMdIXxW78kK1h9-88" value="&lt;font style=&quot;font-size: 20px;&quot;&gt;&lt;b&gt;Third Party&lt;/b&gt;&lt;/font&gt;" style="text;html=1;align=center;verticalAlign=middle;whiteSpace=wrap;rounded=0;" vertex="1" parent="1">
          <mxGeometry x="1130" y="100" width="240" height="60" as="geometry" />
        </mxCell>
        <mxCell id="IoweaXRMdIXxW78kK1h9-89" value="&lt;font style=&quot;font-size: 20px;&quot;&gt;Nmap&lt;/font&gt;" style="rounded=0;whiteSpace=wrap;html=1;" vertex="1" parent="1">
          <mxGeometry x="1150" y="200" width="190" height="60" as="geometry" />
        </mxCell>
        <mxCell id="IoweaXRMdIXxW78kK1h9-90" value="&lt;font style=&quot;font-size: 20px;&quot;&gt;Metasploit&lt;/font&gt;" style="rounded=0;whiteSpace=wrap;html=1;" vertex="1" parent="1">
          <mxGeometry x="1150" y="300" width="190" height="60" as="geometry" />
        </mxCell>
        <mxCell id="IoweaXRMdIXxW78kK1h9-91" value="&lt;font style=&quot;font-size: 20px;&quot;&gt;NIST&lt;/font&gt;" style="rounded=0;whiteSpace=wrap;html=1;" vertex="1" parent="1">
          <mxGeometry x="1150" y="400" width="190" height="60" as="geometry" />
        </mxCell>
        <mxCell id="IoweaXRMdIXxW78kK1h9-96" value="" style="endArrow=none;dashed=1;html=1;rounded=0;exitX=0;exitY=0.25;exitDx=0;exitDy=0;entryX=1;entryY=1;entryDx=0;entryDy=0;" edge="1" parent="1">
          <mxGeometry width="50" height="50" relative="1" as="geometry">
            <mxPoint x="550" y="110" as="sourcePoint" />
            <mxPoint x="1080" y="110.95" as="targetPoint" />
          </mxGeometry>
        </mxCell>
      </root>
    </mxGraphModel>
  </diagram>
</mxfile>
